# xmcd
#
# Track frame offsets:
# 150
# 26398
# 40850
# 61221
# 86037
# 101199
# 125389
# 140656
# 161883
# 182081
# 203793
# 218645
#
# Disc length: 3198 seconds
#
# Revision: 0
# Processed by: cddbd v1.5.1PL2 Copyright (c) Steve Scherf et al.
# Submitted via: Audion 3.0.2 (http://www.panic.com/audion/)
#
DISCID=aa0c7c0c
DTITLE=Stacy Jagger - Faded Memories
DYEAR=1900
DGENRE=
TTITLE0=Faded Memories
TTITLE1=Take Me There
TTITLE2=Jimmy
TTITLE3=Bliss
TTITLE4=Run
TTITLE5=If You Were Mine
TTITLE6=Dreamland Tree
TTITLE7=Livin Bread Woman
TTITLE8=The Mountain
TTITLE9=Innisfree
TTITLE10=Before The World
TTITLE11=The Man I Love
EXTD=
EXTT0=
EXTT1=
EXTT2=
EXTT3=
EXTT4=
EXTT5=
EXTT6=
EXTT7=
EXTT8=
EXTT9=
EXTT10=
EXTT11=
PLAYORDER=
